<?xml version="1.0" encoding="us-ascii" standalone="no"?><svg xmlns="http://www.w3.org/2000/svg" xmlns:xlink="http://www.w3.org/1999/xlink" contentStyleType="text/css" height="597px" preserveAspectRatio="none" style="width:485px;height:597px;background:#FFFFFF;" version="1.1" viewBox="0 0 485 597" width="485px" zoomAndPan="magnify"><defs/><g><!--class Benchmark--><g id="elem_Benchmark"><rect codeLine="1" fill="#F1F1F1" height="80.5938" id="Benchmark" rx="2.5" ry="2.5" style="stroke:#181818;stroke-width:0.5;" width="212" x="136.5" y="7"/><ellipse cx="197.25" cy="23" fill="#ADD1B2" rx="11" ry="11" style="stroke:#181818;stroke-width:1.0;"/><path d="M199.5938,18.6719 C198.6563,18.2344 198.0625,18.0938 197.1875,18.0938 C194.5625,18.0938 192.5625,20.1719 192.5625,22.8906 L192.5625,24.0156 C192.5625,26.5938 194.6719,28.4844 197.5625,28.4844 C198.7813,28.4844 199.9375,28.1875 200.6875,27.6406 C201.2656,27.2344 201.5938,26.7813 201.5938,26.3906 C201.5938,25.9375 201.2031,25.5469 200.7344,25.5469 C200.5156,25.5469 200.3125,25.625 200.125,25.8125 C199.6719,26.2969 199.6719,26.2969 199.4844,26.3906 C199.0625,26.6563 198.375,26.7813 197.6094,26.7813 C195.5625,26.7813 194.2656,25.6875 194.2656,23.9844 L194.2656,22.8906 C194.2656,21.1094 195.5156,19.7969 197.25,19.7969 C197.8281,19.7969 198.4375,19.9531 198.9063,20.2031 C199.3906,20.4844 199.5625,20.7031 199.6563,21.1094 C199.7188,21.5156 199.75,21.6406 199.8906,21.7656 C200.0313,21.9063 200.2656,22.0156 200.4844,22.0156 C200.75,22.0156 201.0156,21.875 201.1875,21.6563 C201.2969,21.5 201.3281,21.3125 201.3281,20.8906 L201.3281,19.4688 C201.3281,19.0313 201.3125,18.9063 201.2188,18.75 C201.0625,18.4844 200.7813,18.3438 200.4844,18.3438 C200.1875,18.3438 199.9844,18.4375 199.7656,18.75 L199.5938,18.6719 Z " fill="#000000"/><text fill="#000000" font-family="sans-serif" font-size="14" lengthAdjust="spacing" textLength="82" x="217.75" y="27.8467">Benchmark</text><line style="stroke:#181818;stroke-width:0.5;" x1="137.5" x2="347.5" y1="39" y2="39"/><text fill="#000000" font-family="sans-serif" font-size="14" lengthAdjust="spacing" textLength="133" x="142.5" y="55.9951">strategy: Strategy</text><text fill="#000000" font-family="sans-serif" font-size="14" lengthAdjust="spacing" textLength="200" x="142.5" y="72.292">simulators: List&lt;Simulator&gt;</text><line style="stroke:#181818;stroke-width:0.5;" x1="137.5" x2="347.5" y1="79.5938" y2="79.5938"/></g><!--class Strategy--><g id="elem_Strategy"><rect codeLine="6" fill="#F1F1F1" height="80.5938" id="Strategy" rx="2.5" ry="2.5" style="stroke:#181818;stroke-width:0.5;" width="225" x="7" y="156"/><ellipse cx="83.75" cy="172" fill="#ADD1B2" rx="11" ry="11" style="stroke:#181818;stroke-width:1.0;"/><path d="M86.0938,167.6719 C85.1563,167.2344 84.5625,167.0938 83.6875,167.0938 C81.0625,167.0938 79.0625,169.1719 79.0625,171.8906 L79.0625,173.0156 C79.0625,175.5938 81.1719,177.4844 84.0625,177.4844 C85.2813,177.4844 86.4375,177.1875 87.1875,176.6406 C87.7656,176.2344 88.0938,175.7813 88.0938,175.3906 C88.0938,174.9375 87.7031,174.5469 87.2344,174.5469 C87.0156,174.5469 86.8125,174.625 86.625,174.8125 C86.1719,175.2969 86.1719,175.2969 85.9844,175.3906 C85.5625,175.6563 84.875,175.7813 84.1094,175.7813 C82.0625,175.7813 80.7656,174.6875 80.7656,172.9844 L80.7656,171.8906 C80.7656,170.1094 82.0156,168.7969 83.75,168.7969 C84.3281,168.7969 84.9375,168.9531 85.4063,169.2031 C85.8906,169.4844 86.0625,169.7031 86.1563,170.1094 C86.2188,170.5156 86.25,170.6406 86.3906,170.7656 C86.5313,170.9063 86.7656,171.0156 86.9844,171.0156 C87.25,171.0156 87.5156,170.875 87.6875,170.6563 C87.7969,170.5 87.8281,170.3125 87.8281,169.8906 L87.8281,168.4688 C87.8281,168.0313 87.8125,167.9063 87.7188,167.75 C87.5625,167.4844 87.2813,167.3438 86.9844,167.3438 C86.6875,167.3438 86.4844,167.4375 86.2656,167.75 L86.0938,167.6719 Z " fill="#000000"/><text fill="#000000" font-family="sans-serif" font-size="14" lengthAdjust="spacing" textLength="63" x="104.25" y="176.8467">Strategy</text><line style="stroke:#181818;stroke-width:0.5;" x1="8" x2="231" y1="188" y2="188"/><text fill="#000000" font-family="sans-serif" font-size="14" lengthAdjust="spacing" textLength="172" x="13" y="204.9951">multiThreaded: Boolean</text><text fill="#000000" font-family="sans-serif" font-size="14" lengthAdjust="spacing" textLength="213" x="13" y="221.292">executionOrder: List&lt;String&gt;</text><line style="stroke:#181818;stroke-width:0.5;" x1="8" x2="231" y1="228.5938" y2="228.5938"/></g><!--class Simulator--><g id="elem_Simulator"><rect codeLine="11" fill="#F1F1F1" height="96.8906" id="Simulator" rx="2.5" ry="2.5" style="stroke:#181818;stroke-width:0.5;" width="198" x="267.5" y="148"/><ellipse cx="327.75" cy="164" fill="#ADD1B2" rx="11" ry="11" style="stroke:#181818;stroke-width:1.0;"/><path d="M330.0938,159.6719 C329.1563,159.2344 328.5625,159.0938 327.6875,159.0938 C325.0625,159.0938 323.0625,161.1719 323.0625,163.8906 L323.0625,165.0156 C323.0625,167.5938 325.1719,169.4844 328.0625,169.4844 C329.2813,169.4844 330.4375,169.1875 331.1875,168.6406 C331.7656,168.2344 332.0938,167.7813 332.0938,167.3906 C332.0938,166.9375 331.7031,166.5469 331.2344,166.5469 C331.0156,166.5469 330.8125,166.625 330.625,166.8125 C330.1719,167.2969 330.1719,167.2969 329.9844,167.3906 C329.5625,167.6563 328.875,167.7813 328.1094,167.7813 C326.0625,167.7813 324.7656,166.6875 324.7656,164.9844 L324.7656,163.8906 C324.7656,162.1094 326.0156,160.7969 327.75,160.7969 C328.3281,160.7969 328.9375,160.9531 329.4063,161.2031 C329.8906,161.4844 330.0625,161.7031 330.1563,162.1094 C330.2188,162.5156 330.25,162.6406 330.3906,162.7656 C330.5313,162.9063 330.7656,163.0156 330.9844,163.0156 C331.25,163.0156 331.5156,162.875 331.6875,162.6563 C331.7969,162.5 331.8281,162.3125 331.8281,161.8906 L331.8281,160.4688 C331.8281,160.0313 331.8125,159.9063 331.7188,159.75 C331.5625,159.4844 331.2813,159.3438 330.9844,159.3438 C330.6875,159.3438 330.4844,159.4375 330.2656,159.75 L330.0938,159.6719 Z " fill="#000000"/><text fill="#000000" font-family="sans-serif" font-size="14" lengthAdjust="spacing" textLength="69" x="348.25" y="168.8467">Simulator</text><line style="stroke:#181818;stroke-width:0.5;" x1="268.5" x2="464.5" y1="180" y2="180"/><text fill="#000000" font-family="sans-serif" font-size="14" lengthAdjust="spacing" textLength="93" x="273.5" y="196.9951">name: String</text><text fill="#000000" font-family="sans-serif" font-size="14" lengthAdjust="spacing" textLength="105" x="273.5" y="213.292">version: String</text><text fill="#000000" font-family="sans-serif" font-size="14" lengthAdjust="spacing" textLength="186" x="273.5" y="229.5889">scenarios: List&lt;Scenario&gt;</text><line style="stroke:#181818;stroke-width:0.5;" x1="268.5" x2="464.5" y1="236.8906" y2="236.8906"/></g><!--class Scenario--><g id="elem_Scenario"><rect codeLine="17" fill="#F1F1F1" height="129.4844" id="Scenario" rx="2.5" ry="2.5" style="stroke:#181818;stroke-width:0.5;" width="223" x="255" y="305"/><ellipse cx="331.25" cy="321" fill="#ADD1B2" rx="11" ry="11" style="stroke:#181818;stroke-width:1.0;"/><path d="M333.5938,316.6719 C332.6563,316.2344 332.0625,316.0938 331.1875,316.0938 C328.5625,316.0938 326.5625,318.1719 326.5625,320.8906 L326.5625,322.0156 C326.5625,324.5938 328.6719,326.4844 331.5625,326.4844 C332.7813,326.4844 333.9375,326.1875 334.6875,325.6406 C335.2656,325.2344 335.5938,324.7813 335.5938,324.3906 C335.5938,323.9375 335.2031,323.5469 334.7344,323.5469 C334.5156,323.5469 334.3125,323.625 334.125,323.8125 C333.6719,324.2969 333.6719,324.2969 333.4844,324.3906 C333.0625,324.6563 332.375,324.7813 331.6094,324.7813 C329.5625,324.7813 328.2656,323.6875 328.2656,321.9844 L328.2656,320.8906 C328.2656,319.1094 329.5156,317.7969 331.25,317.7969 C331.8281,317.7969 332.4375,317.9531 332.9063,318.2031 C333.3906,318.4844 333.5625,318.7031 333.6563,319.1094 C333.7188,319.5156 333.75,319.6406 333.8906,319.7656 C334.0313,319.9063 334.2656,320.0156 334.4844,320.0156 C334.75,320.0156 335.0156,319.875 335.1875,319.6563 C335.2969,319.5 335.3281,319.3125 335.3281,318.8906 L335.3281,317.4688 C335.3281,317.0313 335.3125,316.9063 335.2188,316.75 C335.0625,316.4844 334.7813,316.3438 334.4844,316.3438 C334.1875,316.3438 333.9844,316.4375 333.7656,316.75 L333.5938,316.6719 Z " fill="#000000"/><text fill="#000000" font-family="sans-serif" font-size="14" lengthAdjust="spacing" textLength="62" x="351.75" y="325.8467">Scenario</text><line style="stroke:#181818;stroke-width:0.5;" x1="256" x2="477" y1="337" y2="337"/><text fill="#000000" font-family="sans-serif" font-size="14" lengthAdjust="spacing" textLength="93" x="261" y="353.9951">name: String</text><text fill="#000000" font-family="sans-serif" font-size="14" lengthAdjust="spacing" textLength="135" x="261" y="370.292">description: String</text><text fill="#000000" font-family="sans-serif" font-size="14" lengthAdjust="spacing" textLength="91" x="261" y="386.5889">input: String</text><text fill="#000000" font-family="sans-serif" font-size="14" lengthAdjust="spacing" textLength="211" x="261" y="402.8857">scenarioConfiguration: String</text><text fill="#000000" font-family="sans-serif" font-size="14" lengthAdjust="spacing" textLength="187" x="261" y="419.1826">programs: List&lt;Program&gt;</text><line style="stroke:#181818;stroke-width:0.5;" x1="256" x2="477" y1="426.4844" y2="426.4844"/></g><!--class Program--><g id="elem_Program"><rect codeLine="25" fill="#F1F1F1" height="96.8906" id="Program" rx="2.5" ry="2.5" style="stroke:#181818;stroke-width:0.5;" width="147" x="293" y="494"/><ellipse cx="332.3" cy="510" fill="#ADD1B2" rx="11" ry="11" style="stroke:#181818;stroke-width:1.0;"/><path d="M334.6438,505.6719 C333.7063,505.2344 333.1125,505.0938 332.2375,505.0938 C329.6125,505.0938 327.6125,507.1719 327.6125,509.8906 L327.6125,511.0156 C327.6125,513.5938 329.7219,515.4844 332.6125,515.4844 C333.8313,515.4844 334.9875,515.1875 335.7375,514.6406 C336.3156,514.2344 336.6438,513.7813 336.6438,513.3906 C336.6438,512.9375 336.2531,512.5469 335.7844,512.5469 C335.5656,512.5469 335.3625,512.625 335.175,512.8125 C334.7219,513.2969 334.7219,513.2969 334.5344,513.3906 C334.1125,513.6563 333.425,513.7813 332.6594,513.7813 C330.6125,513.7813 329.3156,512.6875 329.3156,510.9844 L329.3156,509.8906 C329.3156,508.1094 330.5656,506.7969 332.3,506.7969 C332.8781,506.7969 333.4875,506.9531 333.9563,507.2031 C334.4406,507.4844 334.6125,507.7031 334.7063,508.1094 C334.7688,508.5156 334.8,508.6406 334.9406,508.7656 C335.0813,508.9063 335.3156,509.0156 335.5344,509.0156 C335.8,509.0156 336.0656,508.875 336.2375,508.6563 C336.3469,508.5 336.3781,508.3125 336.3781,507.8906 L336.3781,506.4688 C336.3781,506.0313 336.3625,505.9063 336.2688,505.75 C336.1125,505.4844 335.8313,505.3438 335.5344,505.3438 C335.2375,505.3438 335.0344,505.4375 334.8156,505.75 L334.6438,505.6719 Z " fill="#000000"/><text fill="#000000" font-family="sans-serif" font-size="14" lengthAdjust="spacing" textLength="61" x="351.7" y="514.8467">Program</text><line style="stroke:#181818;stroke-width:0.5;" x1="294" x2="439" y1="526" y2="526"/><text fill="#000000" font-family="sans-serif" font-size="14" lengthAdjust="spacing" textLength="93" x="299" y="542.9951">name: String</text><text fill="#000000" font-family="sans-serif" font-size="14" lengthAdjust="spacing" textLength="135" x="299" y="559.292">description: String</text><text fill="#000000" font-family="sans-serif" font-size="14" lengthAdjust="spacing" textLength="91" x="299" y="575.5889">input: String</text><line style="stroke:#181818;stroke-width:0.5;" x1="294" x2="439" y1="582.8906" y2="582.8906"/></g><!--link Benchmark to Strategy--><g id="link_Benchmark_Strategy"><path codeLine="31" d="M209.214,88.28 C191.641,109.282 181.6948,121.169 164.1498,142.138 " fill="none" id="Benchmark-to-Strategy" style="stroke:#181818;stroke-width:1.0;stroke-dasharray:7.0,7.0;"/><polygon fill="none" points="152.599,155.943,168.7515,145.9883,159.5481,138.2877,152.599,155.943" style="stroke:#181818;stroke-width:1.0;"/></g><!--link Benchmark to Simulator--><g id="link_Benchmark_Simulator"><path codeLine="32" d="M276.056,88.28 C291.549,106.647 298.461,114.8403 314.694,134.0843 " fill="none" id="Benchmark-to-Simulator" style="stroke:#181818;stroke-width:1.0;stroke-dasharray:7.0,7.0;"/><polygon fill="none" points="326.3,147.843,319.2803,130.2156,310.1078,137.953,326.3,147.843" style="stroke:#181818;stroke-width:1.0;"/></g><!--link Simulator to Scenario--><g id="link_Simulator_Scenario"><path codeLine="33" d="M366.5,245.133 C366.5,263.613 366.5,267.051 366.5,286.82 " fill="none" id="Simulator-to-Scenario" style="stroke:#181818;stroke-width:1.0;stroke-dasharray:7.0,7.0;"/><polygon fill="none" points="366.5,304.82,372.5,286.82,360.5,286.82,366.5,304.82" style="stroke:#181818;stroke-width:1.0;"/></g><!--link Scenario to Program--><g id="link_Scenario_Program"><path codeLine="34" d="M366.5,434.174 C366.5,453.925 366.5,457.341 366.5,475.8101 " fill="none" id="Scenario-to-Program" style="stroke:#181818;stroke-width:1.0;stroke-dasharray:7.0,7.0;"/><polygon fill="none" points="366.5,493.8101,372.5,475.8101,360.5,475.8101,366.5,493.8101" style="stroke:#181818;stroke-width:1.0;"/></g><!--SRC=[bP51Zi8m34NtFaLEm04gn0As8mqINC1AFSMYJIhRHJDYvkuJbQIDOCKk_dQUlstVewhRK_2N0UNgxg0cQDJzDEwKNw0yJ3rQ56tS1wjjJqNOmH-0dncbEY5IqlXy4SAMsiRjO-m90z0t-SauXazfIGhAX4DNSmexWG8EDFj89N0ZqVHvYTLJGE6ucCfnpShICwebzSAZrJWEusGly4CCNznDQRIwTfJO2Gwby_4HLespydxVH5YFiTdyxjOhFEjbJx1kx978rc6PVfQpfNy0]--></g></svg>